<svg xmlns="http://www.w3.org/2000/svg" width="196" height="54" viewBox="0 0 196 54" fill="none">
<path d="M35.3331 40.2563C34.9844 39.9975 34.4613 40.17 34.2869 40.5151C34.1997 40.6876 32.1072 44.1384 27.312 44.1384C23.1271 44.1384 19.9884 42.1542 19.0294 41.3778C19.1166 41.0327 19.2037 40.6876 19.2909 40.3426C19.2909 39.9112 19.0294 39.4799 18.5934 39.4799C18.1575 39.4799 17.8088 39.7387 17.7216 40.17C17.6344 40.8602 17.3728 41.4641 16.7625 41.9817C16.4138 42.2405 16.4138 42.7581 16.7625 43.1032C16.9369 43.2757 17.1113 43.362 17.3728 43.362C17.5472 43.362 17.7216 43.2757 17.896 43.1032C18.0703 42.9306 18.1575 42.8444 18.2447 42.6718C19.4653 43.5345 22.8655 45.605 27.312 45.605C33.0663 45.605 35.5947 41.3778 35.6818 41.2053C35.8562 40.9464 35.769 40.4288 35.3331 40.2563Z" fill="#203B4C"/>
<path d="M17.9876 29.128C18.1619 29.128 18.3363 29.0417 18.5107 28.9555C19.8185 27.6614 22.434 27.7477 23.2187 28.3516C23.5675 28.6104 24.0034 28.5241 24.2649 28.2653C24.5265 27.9202 24.4393 27.4889 24.1778 27.2301C23.4803 26.7124 22.3469 26.4536 21.0391 26.5399C19.6441 26.6262 18.4235 27.1438 17.5516 28.0065C17.2901 28.2653 17.2901 28.7829 17.5516 29.0417C17.5516 29.0417 17.8132 29.128 17.9876 29.128Z" fill="#203B4C"/>
<path d="M30.4522 28.6096C31.1497 28.2645 33.0678 27.6606 34.55 29.1272C34.7244 29.2997 34.8987 29.2997 35.0731 29.2997C35.2475 29.2997 35.4218 29.2135 35.5962 29.0409C35.8578 28.7821 35.8578 28.2645 35.5962 28.0057C33.4166 25.8489 30.6266 26.7979 29.842 27.143C29.4932 27.3155 29.3188 27.7469 29.4932 28.0919C29.6676 28.6096 30.1035 28.7821 30.4522 28.6096Z" fill="#203B4C"/>
<path d="M21.8232 35.6859C23.027 35.6859 24.0028 34.7203 24.0028 33.5292C24.0028 32.338 23.027 31.3724 21.8232 31.3724C20.6194 31.3724 19.6436 32.338 19.6436 33.5292C19.6436 34.7203 20.6194 35.6859 21.8232 35.6859Z" fill="#203B4C"/>
<path d="M31.6738 35.6859C32.8776 35.6859 33.8534 34.7203 33.8534 33.5292C33.8534 32.338 32.8776 31.3724 31.6738 31.3724C30.47 31.3724 29.4941 32.338 29.4941 33.5292C29.4941 34.7203 30.47 35.6859 31.6738 35.6859Z" fill="#203B4C"/>
<path d="M42.3091 35.4254L40.391 32.4922L41.6988 28.7826C42.0476 27.7473 42.0476 26.6258 41.6116 25.5906C41.0885 24.4691 40.3038 22.83 38.996 21.2771C39.1704 21.1046 42.1347 18.6028 41.6116 13.5128C41.0885 8.50919 35.8574 4.97213 34.0265 4.02316C33.6777 3.85062 33.1546 4.19569 33.4162 4.62704C33.9393 5.40347 33.7649 6.35243 33.1546 7.12886C32.3699 8.07783 31.0621 8.16411 29.9287 7.9053C27.7491 7.56022 25.831 6.26616 23.6513 6.26616C23.2154 6.26616 23.041 6.87006 23.477 7.0426C23.9129 7.30141 23.9129 7.81902 23.7385 8.25037C23.477 8.68172 23.041 8.85426 22.6051 8.94053C21.8204 9.0268 21.0358 8.94053 20.2511 8.85426C19.292 8.76799 18.2458 8.85426 17.2868 9.02679C15.1071 9.2856 12.9275 9.97576 10.9222 11.011C10.7478 11.0973 10.5735 11.1835 10.4863 11.2698C8.74256 11.011 6.99884 11.0973 5.4295 11.96C5.08075 12.1325 5.25512 12.7364 5.60387 12.7364C6.47572 12.6501 6.99884 12.9952 6.91165 13.8579C6.91165 13.8579 5.69105 13.8579 4.73201 14.4618C4.38327 14.7206 4.55765 15.2382 4.90639 15.2382C5.16795 15.2382 5.25513 15.4108 5.25513 15.5833C3.68578 17.4812 2.55236 19.7243 2.11643 22.2261C1.41895 25.6769 1.94207 29.3002 3.07548 32.5784C2.55237 32.5784 2.11643 32.751 1.6805 33.0961C0.72146 33.7862 0.111164 35.1665 0.0239783 36.7194C-0.150393 38.7899 0.634274 40.8603 2.11643 42.4995C3.59859 44.0523 4.99357 44.57 6.12699 44.57C6.56292 44.57 6.91166 44.4837 7.26041 44.3974C7.26041 44.4837 7.34759 44.57 7.43477 44.6562C7.52196 44.7425 9.44005 46.9855 12.8403 49.1422C15.8046 51.0402 20.4255 53.1107 26.2669 53.1107C26.7028 53.1107 27.1388 53.1107 27.6619 53.1107C31.4981 52.8519 34.8983 51.6441 37.6883 49.4873C40.391 47.3306 42.0476 44.7425 42.9194 42.9308C43.9656 40.3427 43.7913 37.5821 42.3091 35.4254ZM41.3501 41.8956C39.7807 45.1738 35.8574 50.6951 27.4875 51.1265C15.979 51.8166 8.56819 43.2759 8.56819 43.1896C8.82975 42.8446 9.26567 42.4132 9.52723 41.8956C9.78879 41.4642 9.61442 40.9466 9.17849 40.7741C8.74256 40.5153 8.30663 40.6878 8.04507 41.1192C7.60914 41.8956 7.08603 42.672 5.95262 42.672C5.08076 42.672 4.12171 42.1544 3.24985 41.1192C1.68051 39.3938 1.59333 37.5821 1.59333 36.6331C1.68051 35.5979 2.11644 34.6489 2.63955 34.2176C2.81393 34.1313 3.16267 33.7862 4.03453 34.4764C4.64483 34.9077 5.16795 35.8567 5.77825 35.8567C7.17322 35.8567 7.52196 33.6137 7.60914 32.751C7.69633 32.0608 7.78352 31.3707 7.8707 30.7668C7.95789 30.508 7.95789 30.2492 8.13226 29.9904C8.30664 29.559 9.0913 29.3002 9.0913 30.0766C9.0913 30.508 9.70161 30.5942 9.87598 30.2492C10.4863 29.2139 10.3991 28.0062 10.3991 26.7984C10.3991 26.367 10.3119 25.6769 10.4863 25.2455C10.6607 24.9004 11.0966 24.7279 11.4453 24.9867C11.6197 25.073 11.6197 25.4181 11.7069 25.5906C11.7941 26.022 12.3172 25.9357 12.4916 25.6769C13.4506 24.3828 13.625 22.6574 13.4506 21.1046C15.1943 20.2419 17.0252 19.4654 18.9433 19.0341C19.9023 18.7753 21.5589 18.6027 21.7332 19.8968C21.9948 21.1908 20.5998 21.9673 19.5536 22.2261C19.1177 22.3123 19.1177 22.9162 19.5536 23.0025C23.1282 23.8652 26.9644 22.83 29.58 20.2419C29.4928 21.3634 28.6209 22.3123 27.8363 23.175C27.5747 23.4339 27.7491 23.8652 28.0978 23.8652C31.0621 24.2966 34.1136 24.3828 36.8164 22.83C37.1651 22.6574 37.4267 22.4849 37.6883 22.2261C38.9089 23.6927 39.6935 25.2455 40.1295 26.2808C40.391 26.8846 40.391 27.5748 40.2167 28.1787L38.8217 32.0608C38.6473 32.4059 38.7345 32.8373 38.996 33.1823L41.0013 36.2881C42.0476 38.0134 42.2219 40.1702 41.3501 41.8956Z" fill="#203B4C"/>
<path d="M61.7646 44.8219V43.2691C63.4927 42.8377 63.752 42.5789 63.752 40.8535V32.1403C63.752 30.5011 63.4063 30.7599 61.7646 30.4149V28.862L68.9362 27.4817V40.9398C68.9362 42.5789 69.4546 43.0102 70.7507 43.1828V44.7356H61.7646V44.8219ZM66.2577 25.4975C64.616 25.4975 63.4063 24.2897 63.4063 22.6506C63.4063 21.0114 64.7024 19.7174 66.3441 19.7174C67.8993 19.7174 69.1954 21.0114 69.1954 22.6506C69.1954 24.2034 67.8993 25.4975 66.2577 25.4975Z" fill="#203B4C"/>
<path d="M175.557 44.8219V43.2691C177.285 42.8377 177.544 42.5789 177.544 40.8535V32.1403C177.544 30.5011 177.198 30.7599 175.557 30.4149V28.862L182.728 27.4817V40.9398C182.728 42.5789 183.247 43.0102 184.543 43.1828V44.7356H175.557V44.8219ZM180.05 25.4975C178.408 25.4975 177.198 24.2897 177.198 22.6506C177.198 21.0114 178.494 19.7174 180.136 19.7174C181.691 19.7174 182.987 21.0114 182.987 22.6506C182.987 24.2034 181.691 25.4975 180.05 25.4975Z" fill="#203B4C"/>
<path d="M97.793 44.8214V43.2685C99.521 42.8372 99.7802 42.5784 99.7802 40.853V24.2892C99.7802 22.6501 99.4346 22.9089 97.793 22.5638V21.0109L104.964 19.6306V40.9393C104.964 42.5784 105.483 43.0097 106.779 43.1823V44.7351H97.793V44.8214Z" fill="#203B4C"/>
<path d="M186.613 44.8214V43.2685C188.341 42.8372 188.601 42.5784 188.601 40.853V24.2892C188.601 22.6501 188.255 22.9089 186.613 22.5638V21.0109L193.785 19.6306V40.9393C193.785 42.5784 194.303 43.0097 195.599 43.1823V44.7351H186.613V44.8214Z" fill="#203B4C"/>
<path d="M171.495 40.9393V32.3123C171.495 29.3791 169.68 27.2224 166.656 27.2224C164.669 27.2224 163.027 27.9125 161.213 30.0693V19.6306L154.041 21.0109V22.5638C155.683 22.9089 156.028 22.5638 156.028 24.2892V40.853C156.028 42.5784 155.769 42.8372 154.041 43.2685V44.8214H163.027V43.2685C161.731 43.096 161.213 42.5784 161.213 41.0255V32.5711C161.213 32.3985 161.472 32.0535 161.817 31.7084C162.681 30.932 163.545 30.4143 164.409 30.4143C165.878 30.4143 166.31 30.6732 166.31 33.3475V41.0255C166.31 42.5784 165.878 43.1823 164.582 43.2685V44.8214H173.309V43.2685C172.013 43.2685 171.495 42.6647 171.495 40.9393Z" fill="#203B4C"/>
<path d="M95.5451 42.8377C94.3355 44.6493 92.953 45.3395 90.9657 45.3395C88.3736 45.3395 86.8183 43.8729 86.8183 41.3711V29.8972H84.8311V27.6542H86.8183V23.0819L92.0026 22.1329V27.6542H95.5451V29.8972H92.0026V40.5084C92.0026 41.975 92.4346 42.7514 93.4714 42.7514C93.9034 42.7514 94.3355 42.5789 94.7675 42.0612C94.8539 42.1475 95.5451 42.8377 95.5451 42.8377Z" fill="#203B4C"/>
<path d="M83.2776 42.8377C82.0679 44.6493 80.6854 45.3395 78.6981 45.3395C76.106 45.3395 74.5508 43.8729 74.5508 41.3711V29.8972H72.5635V27.6542H74.5508V23.0819L79.735 22.1329V27.6542H83.2776V29.8972H79.735V40.5084C79.735 41.975 80.167 42.7514 81.2038 42.7514C81.6359 42.7514 82.0679 42.5789 82.4999 42.0612C82.5863 42.1475 83.1912 42.8377 83.2776 42.8377Z" fill="#203B4C"/>
<path d="M123.108 41.2842C121.034 44.3037 119.134 45.3389 116.109 45.3389C111.616 45.3389 108.506 41.543 108.506 36.4531C108.506 30.9318 111.616 27.136 116.282 27.136C118.442 27.136 119.998 27.8261 121.034 29.0339C122.417 30.5868 123.108 32.9161 123.194 35.6767H113.604C113.863 39.2137 114.554 41.9744 118.183 41.9744C119.652 41.9744 120.775 41.9744 122.158 40.5078C122.503 40.6803 122.762 40.9391 123.108 41.2842ZM116.023 29.0339C114.295 29.0339 113.69 30.7593 113.69 33.6062H118.702C118.702 33.6925 118.961 29.0339 116.023 29.0339Z" fill="#203B4C"/>
<path d="M50.6162 44.8225V43.2696C52.3443 42.8383 52.6035 42.5795 52.6035 40.8541V24.2903C52.6035 22.6512 52.2579 22.91 50.6162 22.5649V21.012L57.7877 19.6317V40.9404C57.7877 42.5795 58.3061 43.0108 59.6022 43.1834V44.7362H50.6162V44.8225Z" fill="#203B4C"/>
<path d="M142.375 22.3915C148.596 22.3915 152.398 24.807 152.398 29.2931C152.398 32.3125 150.67 34.5555 147.559 35.677C145.917 36.2809 144.708 36.3672 139.783 36.3672V39.9042C139.783 42.4061 140.042 42.7511 143.066 43.0962V44.7353H130.624V43.0962C131.315 43.01 131.92 42.9237 132.266 42.7511C133.475 42.2335 133.735 41.1983 133.735 39.3003V27.6539C133.735 24.7208 133.216 24.2031 130.624 24.0306V22.3915H142.375ZM139.783 34.5555C144.449 34.5555 146.004 32.3125 146.004 29.8107C146.004 26.8775 144.794 24.6345 141.684 24.6345C140.474 24.6345 139.783 25.0658 139.783 25.9285V34.5555Z" fill="#203B4C"/>
<path d="M51.2372 12.7733V2.97331H54.4572C55.2225 2.97331 55.8525 3.09931 56.3472 3.35131C56.8418 3.60331 57.2058 3.94398 57.4392 4.37332C57.6818 4.80265 57.8032 5.28798 57.8032 5.82932C57.8032 6.36132 57.6865 6.84198 57.4532 7.27132C57.2198 7.70065 56.8558 8.04598 56.3612 8.30732C55.8665 8.55932 55.2318 8.68532 54.4572 8.68532H52.4132V12.7733H51.2372ZM52.4132 7.69132H54.4292C55.2132 7.69132 55.7685 7.52798 56.0952 7.20131C56.4312 6.86532 56.5992 6.40798 56.5992 5.82932C56.5992 5.24132 56.4312 4.78398 56.0952 4.45731C55.7685 4.12131 55.2132 3.95331 54.4292 3.95331H52.4132V7.69132ZM62.0284 12.9413C61.3751 12.9413 60.7871 12.792 60.2644 12.4933C59.7418 12.1946 59.3264 11.7746 59.0184 11.2333C58.7198 10.6826 58.5704 10.0386 58.5704 9.30132C58.5704 8.56398 58.7244 7.92465 59.0324 7.38332C59.3404 6.83265 59.7558 6.40798 60.2784 6.10932C60.8104 5.81065 61.4031 5.66132 62.0564 5.66132C62.7098 5.66132 63.2978 5.81065 63.8204 6.10932C64.3431 6.40798 64.7538 6.83265 65.0524 7.38332C65.3604 7.92465 65.5144 8.56398 65.5144 9.30132C65.5144 10.0386 65.3604 10.6826 65.0524 11.2333C64.7444 11.7746 64.3244 12.1946 63.7924 12.4933C63.2698 12.792 62.6818 12.9413 62.0284 12.9413ZM62.0284 11.9333C62.4298 11.9333 62.8031 11.8353 63.1484 11.6393C63.4938 11.4433 63.7738 11.1493 63.9884 10.7573C64.2031 10.3653 64.3104 9.87998 64.3104 9.30132C64.3104 8.72265 64.2031 8.23732 63.9884 7.84532C63.7831 7.45332 63.5078 7.15932 63.1624 6.96332C62.8171 6.76732 62.4484 6.66932 62.0564 6.66932C61.6551 6.66932 61.2818 6.76732 60.9364 6.96332C60.5911 7.15932 60.3111 7.45332 60.0964 7.84532C59.8818 8.23732 59.7744 8.72265 59.7744 9.30132C59.7744 9.87998 59.8818 10.3653 60.0964 10.7573C60.3111 11.1493 60.5864 11.4433 60.9224 11.6393C61.2678 11.8353 61.6364 11.9333 62.0284 11.9333ZM68.2898 12.7733L66.2598 5.82932H67.4358L68.9058 11.2753L70.5298 5.82932H71.8598L73.4978 11.2753L74.9538 5.82932H76.1438L74.1138 12.7733H72.9098L71.2018 7.04732L69.4938 12.7733H68.2898ZM80.3068 12.9413C79.6441 12.9413 79.0561 12.792 78.5428 12.4933C78.0294 12.1853 77.6234 11.7606 77.3248 11.2193C77.0354 10.678 76.8908 10.0386 76.8908 9.30132C76.8908 8.57332 77.0354 7.93865 77.3248 7.39732C77.6141 6.84665 78.0154 6.42198 78.5288 6.12332C79.0514 5.81532 79.6534 5.66132 80.3347 5.66132C81.0068 5.66132 81.5854 5.81532 82.0708 6.12332C82.5654 6.42198 82.9434 6.81865 83.2048 7.31332C83.4661 7.80798 83.5968 8.33998 83.5968 8.90932C83.5968 9.01198 83.5921 9.11465 83.5828 9.21732C83.5828 9.31998 83.5828 9.43665 83.5828 9.56732H78.0528C78.0808 10.0993 78.2021 10.5426 78.4168 10.8973C78.6408 11.2426 78.9161 11.504 79.2428 11.6813C79.5788 11.8586 79.9334 11.9473 80.3068 11.9473C80.7921 11.9473 81.1981 11.8353 81.5248 11.6113C81.8514 11.3873 82.0894 11.084 82.2388 10.7013H83.4008C83.2141 11.3453 82.8548 11.882 82.3228 12.3113C81.8001 12.7313 81.1281 12.9413 80.3068 12.9413ZM80.3068 6.65532C79.7468 6.65532 79.2474 6.82798 78.8088 7.17332C78.3794 7.50932 78.1321 8.00398 78.0667 8.65732H82.4348C82.4068 8.03198 82.1921 7.54198 81.7908 7.18732C81.3894 6.83265 80.8948 6.65532 80.3068 6.65532ZM85.1555 12.7733V5.82932H86.2195L86.3175 7.15932C86.5321 6.70198 86.8588 6.33798 87.2975 6.06731C87.7361 5.79665 88.2775 5.66132 88.9215 5.66132V6.89332H88.5995C88.1888 6.89332 87.8108 6.96798 87.4655 7.11732C87.1201 7.25732 86.8448 7.49998 86.6395 7.84532C86.4341 8.19065 86.3315 8.66665 86.3315 9.27332V12.7733H85.1555ZM93.1036 12.9413C92.441 12.9413 91.853 12.792 91.3396 12.4933C90.8263 12.1853 90.4203 11.7606 90.1216 11.2193C89.8323 10.678 89.6876 10.0386 89.6876 9.30132C89.6876 8.57332 89.8323 7.93865 90.1216 7.39732C90.411 6.84665 90.8123 6.42198 91.3256 6.12332C91.8483 5.81532 92.4503 5.66132 93.1316 5.66132C93.8036 5.66132 94.3823 5.81532 94.8676 6.12332C95.3623 6.42198 95.7403 6.81865 96.0016 7.31332C96.263 7.80798 96.3936 8.33998 96.3936 8.90932C96.3936 9.01198 96.389 9.11465 96.3796 9.21732C96.3796 9.31998 96.3796 9.43665 96.3796 9.56732H90.8496C90.8776 10.0993 90.999 10.5426 91.2136 10.8973C91.4376 11.2426 91.713 11.504 92.0396 11.6813C92.3756 11.8586 92.7303 11.9473 93.1036 11.9473C93.589 11.9473 93.995 11.8353 94.3216 11.6113C94.6483 11.3873 94.8863 11.084 95.0356 10.7013H96.1976C96.011 11.3453 95.6516 11.882 95.1196 12.3113C94.597 12.7313 93.925 12.9413 93.1036 12.9413ZM93.1036 6.65532C92.5436 6.65532 92.0443 6.82798 91.6056 7.17332C91.1763 7.50932 90.929 8.00398 90.8636 8.65732H95.2316C95.2036 8.03198 94.989 7.54198 94.5876 7.18732C94.1863 6.83265 93.6916 6.65532 93.1036 6.65532ZM101.102 12.9413C100.412 12.9413 99.805 12.7826 99.2823 12.4653C98.769 12.148 98.3677 11.714 98.0783 11.1633C97.7983 10.6126 97.6583 9.98732 97.6583 9.28732C97.6583 8.58732 97.803 7.96665 98.0923 7.42532C98.3817 6.87465 98.783 6.44532 99.2963 6.13731C99.8097 5.81998 100.416 5.66132 101.116 5.66132C101.686 5.66132 102.19 5.77798 102.628 6.01132C103.067 6.24465 103.408 6.57132 103.65 6.99132V2.69332H104.826V12.7733H103.762L103.65 11.6253C103.426 11.9613 103.104 12.2646 102.684 12.5353C102.264 12.806 101.737 12.9413 101.102 12.9413ZM101.228 11.9193C101.695 11.9193 102.106 11.812 102.46 11.5973C102.824 11.3733 103.104 11.0653 103.3 10.6733C103.506 10.2813 103.608 9.82398 103.608 9.30132C103.608 8.77865 103.506 8.32132 103.3 7.92932C103.104 7.53732 102.824 7.23398 102.46 7.01932C102.106 6.79532 101.695 6.68331 101.228 6.68331C100.771 6.68331 100.36 6.79532 99.9963 7.01932C99.6417 7.23398 99.3617 7.53732 99.1563 7.92932C98.9603 8.32132 98.8623 8.77865 98.8623 9.30132C98.8623 9.82398 98.9603 10.2813 99.1563 10.6733C99.3617 11.0653 99.6417 11.3733 99.9963 11.5973C100.36 11.812 100.771 11.9193 101.228 11.9193ZM114.158 12.9413C113.589 12.9413 113.08 12.8246 112.632 12.5913C112.194 12.358 111.858 12.0313 111.624 11.6113L111.512 12.7733H110.448V2.69332H111.624V6.97731C111.848 6.64132 112.166 6.33798 112.576 6.06731C112.996 5.79665 113.528 5.66132 114.172 5.66132C114.863 5.66132 115.465 5.81998 115.978 6.13731C116.492 6.45465 116.888 6.88865 117.168 7.43932C117.458 7.98998 117.602 8.61532 117.602 9.31532C117.602 10.0153 117.458 10.6406 117.168 11.1913C116.888 11.7326 116.487 12.162 115.964 12.4793C115.451 12.7873 114.849 12.9413 114.158 12.9413ZM114.032 11.9193C114.499 11.9193 114.91 11.812 115.264 11.5973C115.619 11.3733 115.899 11.0653 116.104 10.6733C116.31 10.2813 116.412 9.82398 116.412 9.30132C116.412 8.77865 116.31 8.32132 116.104 7.92932C115.899 7.53732 115.619 7.23398 115.264 7.01932C114.91 6.79532 114.499 6.68331 114.032 6.68331C113.566 6.68331 113.155 6.79532 112.8 7.01932C112.446 7.23398 112.166 7.53732 111.96 7.92932C111.755 8.32132 111.652 8.77865 111.652 9.30132C111.652 9.82398 111.755 10.2813 111.96 10.6733C112.166 11.0653 112.446 11.3733 112.8 11.5973C113.155 11.812 113.566 11.9193 114.032 11.9193ZM119.435 15.8533L121.157 12.1013H120.751L117.993 5.82932H119.267L121.563 11.2333L123.999 5.82932H125.217L120.667 15.8533H119.435Z" fill="#203B4C"/>
</svg>